# xmcd
#
# Track frame offsets: 
#        150
#        30486
#        51109
#        73534
#        105792
#        130518
#        151141
#        173830
#        194368
#        210828
#
# Disc length: 3097 seconds
#
# Revision: 0
# Processed by: cddbd v1.5.2PL0 Copyright (c) Steve Scherf et al.
# Submitted via: ExactAudioCopy v1.0b3
#
DISCID=700c170a
DTITLE=Duy Vu - Doan Tinh Dang Do
DYEAR=2005
DGENRE=
TTITLE0=Doan tinh dang do
TTITLE1=Da ta
TTITLE2=Suong trang mien que ngoai
TTITLE3=Canh thu bang huu
TTITLE4=Ba thang quan truong
TTITLE5=Xot xa
TTITLE6=Linh nghi gi
TTITLE7=Sao no phu tinh nhau
TTITLE8=Xa nguoi yeu
TTITLE9=Chuyen mua may
EXTD=
EXTT0=
EXTT1=
EXTT2=
EXTT3=
EXTT4=
EXTT5=
EXTT6=
EXTT7=
EXTT8=
EXTT9=
PLAYORDER=
